<?xml version="1.0" encoding="UTF-8" standalone="no"?>
<!DOCTYPE svg PUBLIC "-//W3C//DTD SVG 1.1//EN" "http://www.w3.org/Graphics/SVG/1.1/DTD/svg11.dtd">
<svg width="100%" height="100%" viewBox="0 0 698 1255" version="1.1" xmlns="http://www.w3.org/2000/svg" xmlns:xlink="http://www.w3.org/1999/xlink" xml:space="preserve" xmlns:serif="http://www.serif.com/" style="fill-rule:evenodd;clip-rule:evenodd;stroke-linejoin:round;stroke-miterlimit:2;">
    <g transform="matrix(1,0,0,1,-230.521,-505.437)">
        <g transform="matrix(4.16667,0,0,4.16667,0,0)">
            <path d="M196.926,269.241L96.451,269.241C97.734,207.223 126.055,152.83 168.267,121.305L158.565,121.305C118.29,154.48 91.674,208.308 90.448,269.241L55.325,269.241L55.325,273.991L90.394,273.991C90.492,334.384 115.544,388.15 154.28,422.311L163.558,422.311C123.067,389.616 96.496,335.337 96.394,273.991L196.926,273.991L196.926,422.461L222.636,422.461L222.636,121.645L196.926,121.645L196.926,269.241Z" style="fill:rgb(64,63,65);"/>
        </g>
    </g>
</svg>
