<?xml version="1.0" encoding="UTF-8" standalone="no"?>
<!DOCTYPE svg PUBLIC "-//W3C//DTD SVG 1.1//EN" "http://www.w3.org/Graphics/SVG/1.1/DTD/svg11.dtd">
<svg width="100%" height="100%" viewBox="0 0 2050 2217" version="1.1" xmlns="http://www.w3.org/2000/svg" xmlns:xlink="http://www.w3.org/1999/xlink" xml:space="preserve" xmlns:serif="http://www.serif.com/" style="fill-rule:evenodd;clip-rule:evenodd;stroke-linejoin:round;stroke-miterlimit:2;">
    <g transform="matrix(4.16667,0,0,4.16667,0,0)">
        <path d="M203.861,515.282C203.976,515.288 204.09,515.295 204.204,515.303C204.277,515.098 204.421,514.889 204.405,514.691C204.385,514.457 204.228,514.235 204.131,514.007C204.011,514.037 203.892,514.067 203.773,514.098C203.803,514.493 203.832,514.887 203.861,515.282ZM199.983,487.015C199.902,487.956 200.168,488.788 199.205,489.365C198.84,489.584 198.587,490.417 198.677,490.896C199.053,492.906 198.711,494.851 198.132,496.718C197.709,498.081 198.392,499.22 198.408,500.469C198.418,501.281 198.461,502.096 198.408,502.904C198.341,503.925 198.304,504.97 198.052,505.953C197.656,507.497 198.232,508.52 199.571,509.28C199.399,509.798 199.244,510.265 199.069,510.792C200.039,511.127 200.485,512.683 202.001,511.66C202.101,511.099 202.292,510.417 202.325,509.728C202.363,508.938 202.373,508.246 203.15,507.711C203.455,507.501 203.625,506.809 203.553,506.387C203.34,505.127 203.483,504.023 204.172,502.9C204.935,501.658 205.679,500.348 206.099,498.967C206.577,497.391 206.667,495.7 206.965,494.066C207.341,492.01 207.596,489.936 208.406,487.963C208.637,487.401 208.192,486.562 208.011,485.607C209.565,484.409 208.993,482.353 209.255,480.531C209.503,478.803 209.861,477.197 211.152,475.876C211.662,475.354 212.088,475.319 212.658,475.497C212.896,475.572 213.118,475.708 213.341,475.828C214.235,476.306 215.08,476.961 216.034,477.219C216.841,477.437 217.801,477.089 218.58,478.086C218.58,478.929 218.555,479.942 218.604,480.951C218.612,481.121 218.94,481.276 219.158,481.471C218.709,481.897 218.136,482.251 217.852,482.765C217.594,483.234 217.65,483.876 217.563,484.469C217.03,484.652 216.278,484.159 215.981,485.075C215.67,486.035 216.016,486.688 216.8,487.318C215.904,488.312 215.024,489.289 214.04,490.38C214.826,491.764 214.129,493.175 213.406,494.383C212.821,495.36 212.813,496.278 212.774,497.283C212.727,498.5 213.112,499.847 211.351,500.423C210.984,500.543 210.702,501.429 209.983,501.719C209.669,501.846 209.398,502.81 209.565,503.193C209.737,503.587 210.468,503.736 211.267,504.157C211.148,505.328 211.017,506.893 210.814,508.45C210.76,508.861 210.499,509.25 210.314,509.64C209.987,510.331 209.574,510.99 209.325,511.707C208.578,513.858 207.888,516.03 207.189,518.198C207.092,518.498 207.014,518.819 207.017,519.129C207.029,520.475 206.579,521.709 205.64,522.883C205.493,523.067 205.39,523.322 205.356,523.556C205.033,525.828 204.728,528.102 204.429,530.297C203.631,530.821 202.872,531.319 201.834,532C201.309,531.847 200.314,531.799 199.644,531.308C198.263,530.295 196.661,530.652 195.188,530.294C194.889,530.222 194.502,530.512 194.249,530.602C193.814,530.285 193.405,529.903 192.925,529.664C192.537,529.471 192.041,529.503 191.63,529.34C189.622,528.546 189.156,527.627 189.45,525.479C189.56,524.676 189.443,523.842 189.431,523.021C189.404,521.321 189.23,519.68 189.856,517.949C190.348,516.589 190.041,514.934 190.06,513.409C190.069,512.731 189.896,512.036 189.996,511.378C190.236,509.814 190.711,508.316 190.542,506.662C190.436,505.633 190.884,504.521 191.198,503.481C191.55,502.318 191.619,501.317 190.699,500.321C190.159,499.736 190.121,498.782 190.841,498.307C191.623,497.789 191.595,497.226 191.432,496.5C191.307,495.943 191.217,495.379 191.111,494.813C190.467,494.546 189.84,494.225 189.177,494.026C187.92,493.649 186.93,494.429 186.906,495.735C186.883,497.016 186.837,498.296 186.799,499.577C186.793,499.769 186.846,500.078 186.752,500.135C185.398,500.963 186.065,502.631 185.254,503.698C185.017,504.01 185.039,504.549 185.013,504.988C184.954,505.99 184.775,506.896 183.576,507.13C184.05,509.338 183.601,511.04 181.715,511.872C181.413,513.271 181.072,514.493 180.908,515.737C180.803,516.537 180.871,517.387 181.014,518.188C181.371,520.181 180.126,523.558 178.446,524.105C176.844,524.628 175.193,525.512 173.364,524.79C173.122,524.694 172.757,524.908 172.484,524.971C171.525,524.058 171.567,523.066 171.846,521.816C172.317,519.704 172.449,517.517 172.719,515.36C172.766,514.98 172.696,514.555 172.838,514.218C173.651,512.286 174.519,510.377 175.35,508.453C175.522,508.056 175.738,507.622 175.728,507.211C175.67,504.808 176.921,502.652 176.981,500.278C178.607,497.508 178.793,494.372 179.252,491.306C179.29,491.053 179.216,490.718 179.353,490.553C180.591,489.061 180.65,487.161 181.181,485.426C181.274,485.122 181.518,484.82 181.496,484.532C181.332,482.363 182.51,480.492 182.815,478.43C182.889,477.927 182.992,477.376 183.261,476.965C183.867,476.039 183.959,475.033 183.867,474.006C183.77,472.921 184.075,472.061 184.771,471.212C185.367,470.485 185.742,469.577 186.273,468.646C187.596,469.003 188.954,468.771 190.221,469.642C191.023,470.194 192.279,469.842 193.234,470.432C193.398,470.533 193.912,470.069 194.299,469.845C195.253,470.345 196.334,470.834 197.325,471.465C197.757,471.74 198.152,472.261 198.306,472.751C198.798,474.318 198.742,476.044 199.851,477.444C200.06,477.707 199.796,478.401 199.656,478.868C199.476,479.471 199.064,480.03 198.994,480.636C198.816,482.155 198.75,483.689 198.687,485.219C198.639,486.366 198.737,486.461 199.983,487.015Z" style="fill:rgb(64,63,65);fill-rule:nonzero;"/>
        <path d="M439.745,379.735C440.198,379.735 440.416,379.803 440.542,379.725C441.958,378.848 442.203,378.955 442.92,380.354C443.236,380.971 443.844,381.438 444.263,381.909C445.332,381.55 446.166,381.269 447.067,380.967C447.38,382.943 448.997,382.291 450.203,382.415C451.757,384.448 451.937,384.454 453.6,382.578C454.146,383.052 454.693,383.095 454.975,382.359C455.476,381.05 455.795,379.672 457.059,378.788C457.291,378.625 457.323,378.081 457.331,377.711C457.362,376.373 457.344,375.035 457.344,373.661C456.722,373.524 456.307,373.433 455.753,373.311C455.951,370.646 453.663,369.976 451.936,369.034C450.5,368.25 448.782,367.958 447.166,367.534C445.965,367.219 445.231,367.632 444.548,368.72C444.151,369.351 443.973,370.093 442.925,370.25C442.377,370.333 441.958,371.312 441.493,371.896C441.355,372.069 441.199,372.454 441.152,372.438C440.162,372.11 440.214,372.927 440.172,373.412C439.99,375.499 439.883,377.592 439.745,379.735ZM437.996,360.052C440.02,359.68 440.596,359.348 442.376,357.55C443.787,358.115 444.957,357.434 446.124,356.804C447.526,356.048 447.697,356.143 448.86,357.21C449.768,358.044 450.779,359.081 451.893,359.313C454.669,359.891 456.191,362.322 458.59,363.415C459.158,363.674 459.397,364.656 459.788,365.306C459.918,365.183 460.049,365.06 460.18,364.937C460.058,365.489 459.936,366.042 459.775,366.774C460.289,366.703 460.679,366.648 461.07,366.595C462.918,368.401 463.057,370.988 463.954,373.379C466.072,372.247 468.12,371.912 470.275,372.537C470.422,372.58 470.64,372.439 470.806,372.35C472.461,371.454 474.108,371.695 475.819,372.242C476.758,372.542 477.789,372.566 478.781,372.686C480.794,372.929 480.795,372.921 481.269,374.652C482.541,375.476 484.111,374.616 485.346,375.389C484.872,376.801 484.399,378.209 483.787,380.031C484.623,379.813 485.041,379.79 485.364,379.603C486.124,379.162 486.8,378.568 487.579,378.173C488.482,377.714 489.42,377.232 490.222,378.514C490.466,378.904 491.219,378.975 491.871,379.248C491.702,379.714 491.569,380.11 491.414,380.499C491.25,380.911 490.86,381.353 490.925,381.719C491.414,384.477 489.081,386.082 488.528,388.323C486.539,388.241 485.273,387.09 483.812,386.291C482.101,385.354 480.219,384.713 478.372,384.052C477.88,383.875 477.583,383.664 477.195,383.322C476.283,382.521 475.174,381.918 474.084,381.353C473.43,381.015 472.634,380.961 471.95,380.668C470.324,379.973 468.741,380.051 467.194,380.834C465.483,381.699 463.914,382.688 462.996,384.53C462.229,386.067 461.737,387.423 463.103,388.902C463.547,389.383 463.63,390.18 463.953,390.793C464.721,392.249 465.226,392.454 466.878,392.091C467.101,392.042 467.432,391.876 467.532,391.966C468.851,393.151 470.925,393.188 471.924,394.879C472.108,395.192 472.555,395.428 472.928,395.536C474.076,395.868 474.874,397.217 476.307,396.707C476.859,397.943 478.165,397.924 479.142,398.464C479.515,398.67 479.897,399.252 479.902,399.667C479.929,402.043 479.595,404.363 478.503,406.526C477.016,409.476 474.867,409.377 472.728,406.82C472.608,406.677 472.523,406.504 472.365,406.256C471.836,406.282 471.277,406.309 470.832,406.33C468.907,405.108 467.715,402.906 465.148,402.83C464.81,402.82 464.436,402.454 464.161,402.173C463.454,401.452 462.794,400.685 462.114,399.939C462.072,399.893 462.009,399.833 461.958,399.835C459.247,399.911 457.776,397.444 455.477,396.682C454.826,396.467 454.138,396.349 453.506,396.091C452.983,395.878 452.31,395.639 452.071,395.208C451.523,394.222 450.474,393.932 449.697,393.856C447.709,393.661 446.751,392.013 445.267,391.145C444.73,390.83 444.319,390.444 443.635,390.333C442.206,390.101 440.623,390.074 439.807,388.511C438.329,388.461 437.434,386.828 435.728,387.135C435.056,387.256 434.223,386.551 433.478,386.192C432.764,385.848 432.071,385.457 431.361,385.104C431.194,385.02 430.987,385.022 430.811,384.953C429.714,384.529 428.273,384.618 427.717,383.332C426.895,381.426 426.382,379.436 427.192,377.365C427.283,377.129 427.396,376.835 427.59,376.717C429.089,375.802 429.146,374.191 429.529,372.749C429.728,371.999 429.794,371.246 430.721,370.948C431.04,370.846 431.328,370.462 431.507,370.138C432.322,368.666 433.085,367.165 433.886,365.685C434.093,365.302 434.291,364.767 434.628,364.625C436.693,363.76 437.443,361.966 437.996,360.052Z" style="fill:rgb(64,63,65);fill-rule:nonzero;"/>
        <path d="M21.132,382.508C21.071,382.987 21.016,383.42 20.956,383.901C19.865,384.384 18.77,384.87 17.675,385.355C15.716,384.318 15.423,384.308 14.264,385.373C14.049,385.57 13.765,385.923 13.813,386.136C14.074,387.287 13.131,387.993 12.862,388.937C12.822,389.075 12.715,389.225 12.595,389.305C11.997,389.702 11.383,390.077 10.552,390.6C10.284,390.549 9.725,390.442 9.485,390.396C8.225,390.98 7.242,391.483 6.219,391.885C5.84,392.034 5.363,391.997 4.94,391.954C4.149,391.873 3.364,391.725 2.387,391.577C-0.608,387.471 0,389.146 0.158,384.29C1.494,383.614 2.906,382.91 4.306,382.183C4.684,381.986 5.126,381.795 5.366,381.473C6.44,380.039 7.898,379.422 9.621,379.227C10.102,379.172 10.561,378.913 11.027,378.741C11.376,378.612 11.767,378.292 12.058,378.367C13.523,378.746 14.203,377.537 15.161,376.92C15.686,376.581 16.11,376.088 16.605,375.696C17.454,375.024 18.386,374.7 19.494,374.467C21.137,374.121 22.712,373.248 23.862,371.933C24.977,370.658 24.91,370.6 26.168,371.554C26.908,371.2 27.572,370.94 28.176,370.579C28.882,370.158 29.642,369.747 30.186,369.155C30.963,368.31 31.746,368.112 32.497,368.587C33.377,368.079 34.093,367.7 34.772,367.261C35.357,366.883 35.901,366.44 36.458,366.019C36.657,365.868 36.91,365.519 37.023,365.562C39.19,366.386 39.969,363.59 41.872,363.686C41.999,363.692 42.165,362.911 42.353,362.384C43.065,362.124 44.025,362.175 44.512,361.206C44.653,360.925 45.538,360.708 45.845,360.881C46.734,361.382 47.22,360.985 47.871,360.458C48.505,359.946 49.313,359.649 50.099,359.228C50.58,359.47 51.072,359.729 51.575,359.965C51.742,360.044 52.077,360.032 52.097,360.119C52.443,361.561 53.983,362.154 54.486,363.407C54.947,364.555 54.365,365.83 53.589,366.535C53.037,367.036 52.903,367.473 52.746,368.057C52.554,368.771 52.317,369.473 52.05,370.34C51.278,369.921 50.741,369.629 50.092,369.277C49.868,369.654 49.652,370.016 49.529,370.222C48.324,370.502 47.241,370.753 46.143,371.008C45.932,371.77 45.751,372.43 45.626,372.883C44.534,373.031 43.554,373.427 42.735,373.211C41.632,372.92 40.774,373.203 40.001,373.762C38.174,375.087 36.526,376.605 35.73,378.82C35.708,378.881 35.663,378.958 35.682,379.004C36.615,381.169 36.188,383.863 38.249,385.595C38.53,385.831 38.681,386.222 38.964,386.451C39.931,387.232 40.923,387.983 41.926,388.717C42.048,388.806 42.327,388.781 42.484,388.706C43.104,388.41 43.687,388.031 44.317,387.763C44.858,387.532 45.494,388.232 46.057,387.573C46.824,386.677 48.294,386.707 48.849,385.429C49.014,385.05 49.644,384.749 50.111,384.649C51.902,384.266 52.981,382.882 54.313,381.846C54.632,381.598 55.07,381.403 55.466,381.377C56.031,381.34 56.607,381.524 57.18,381.536C58.095,381.557 59.011,381.831 59.788,380.873C60.221,380.34 61.102,380.17 61.755,379.849C63.073,380.507 63.072,381.856 63.528,382.954C63.903,383.857 64.316,384.744 64.839,385.924C64.458,386.495 64.187,387.458 64.95,388.306C64.148,389.087 63.447,389.769 62.579,390.613C62.32,390.54 61.799,390.395 61.144,390.212C60.951,390.728 60.783,391.178 60.642,391.554C60.207,391.51 59.63,391.277 59.213,391.443C57.742,392.029 56.33,392.758 54.889,393.42C54.149,393.759 53.42,394.163 52.642,394.369C51.901,394.564 51.291,394.752 50.649,395.301C49.89,395.95 48.764,396.259 47.747,396.476C47.245,396.583 46.628,396.154 45.76,395.867C44.254,397.438 42.308,398.982 40.309,400.432C39.279,400.14 38.273,399.855 37.071,399.514C36.859,400.394 36.673,401.168 36.468,402.02C35.859,401.879 35.319,401.754 34.737,401.619C34.521,401.918 34.284,402.149 34.162,402.43C33.434,404.097 32.153,404.924 30.36,405.021C29.548,405.065 28.917,405.332 28.559,406.174C28.278,406.836 27.744,407.125 26.925,407.259C26.051,407.402 25.228,408.029 24.458,408.554C24.034,408.844 23.775,409.224 23.141,409.014C22.219,408.709 21.714,409.205 21.455,410.089C21.13,411.2 20.305,411.542 19.216,411.418C18.284,411.313 17.35,411.173 16.415,411.155C16.021,411.147 15.622,411.414 15.114,411.596C14.26,411.122 13.278,410.512 12.241,410.017C10.902,409.378 10.469,408.325 10.455,406.913C10.434,404.768 10.409,404.818 12.413,403.882C13.391,403.425 14.252,402.686 15.423,403.247C16.088,402.626 16.753,402.006 17.419,401.385C17.358,401.298 17.297,401.21 17.236,401.123C17.726,401.085 18.239,401.126 18.699,400.988C19.174,400.845 19.596,400.529 20.221,400.192C20.164,400.797 20.118,401.286 20.043,402.082C20.517,401.625 20.852,401.38 21.075,401.058C21.203,400.872 21.124,400.555 21.18,400.306C21.627,398.319 22.197,398.026 24.18,398.819C24.437,398.507 24.71,398.177 25.029,397.791C25.372,397.967 25.697,398.133 25.902,398.238C27.068,397.224 28.272,396.321 29.3,395.25C30.832,393.653 30.698,390.925 29.45,389.138C28.752,388.138 28.46,386.826 28.121,385.616C27.933,384.949 27.827,384.391 27.008,384.288C26.784,384.26 26.516,384.066 26.388,383.87C25.586,382.643 24.314,382.889 23.147,382.777C22.534,382.718 21.924,382.615 21.132,382.508Z" style="fill:rgb(64,63,65);fill-rule:nonzero;"/>
        <path d="M306.28,498.483C307.793,498.608 309.29,497.808 310.896,497.472C312.094,497.222 313.276,497.113 314.472,496.97C314.72,496.94 315.087,496.91 315.184,496.75C315.924,495.522 317.307,495.706 318.39,495.275C319.703,494.753 320.038,495.043 320.304,496.393C320.395,496.856 320.57,497.519 320.905,497.68C322.156,498.284 322.014,499.07 321.456,500.035C321.371,500.184 321.403,500.4 321.364,500.728C321.786,500.797 322.183,500.862 322.323,500.884C322.876,501.66 323.436,502.253 323.761,502.954C324.098,503.678 324.29,504.499 324.372,505.296C324.401,505.579 323.974,505.997 323.658,506.208C322.819,506.771 322.722,507.336 323.605,507.808C324.786,508.44 325.238,509.376 325.173,510.632C325.114,511.766 325.213,512.736 326.4,513.387C326.935,513.681 327.472,514.277 327.269,515.144C327.193,515.47 327.29,516.001 327.518,516.205C329.212,517.724 329.177,519.511 328.49,521.412C327.898,521.679 327.208,521.795 326.822,522.201C325.577,523.506 323.963,524.176 322.411,524.93C320.096,526.053 317.556,526.686 315.484,528.343C314.008,529.523 312.229,530.064 310.362,530.38C308.115,530.759 305.888,531.258 303.744,531.687C302.852,531.432 301.921,531.272 301.086,530.897C300.389,530.584 299.691,530.118 299.196,529.545C298.335,528.548 296.815,528.25 296.387,526.779C296.288,526.436 295.718,526.241 295.389,525.95C294.243,524.934 293.049,524.001 293.266,522.142C293.332,521.572 292.842,520.817 292.402,520.334C291.641,519.496 290.955,518.756 291.35,517.48C291.448,517.165 291.048,516.707 290.916,516.303C290.563,515.22 290.075,514.152 289.93,513.04C289.751,511.672 288.973,510.374 289.414,508.907C289.47,508.719 289.023,508.311 288.739,508.1C287.572,507.229 287.236,506.128 287.584,504.723C287.765,503.99 287.754,503.211 287.84,502.454C287.938,501.593 287.57,500.884 286.868,500.518C285.562,499.836 285.331,498.395 285.784,497.596C286.814,495.783 285.654,494.65 284.727,493.829C283.513,492.753 283.314,491.435 282.978,490.107C282.792,489.373 282.882,488.648 282.097,488.11C281.745,487.869 281.717,487.106 281.612,486.566C281.479,485.885 281.417,485.191 281.267,484.079C281.566,483.842 282.174,483.362 282.843,482.833C282.837,479.721 284.845,477.715 287.112,475.844C287.423,475.587 287.556,475.115 287.651,474.951C288.326,474.883 288.985,474.948 289.541,474.737C291.07,474.156 292.653,473.617 294.034,472.767C295.605,471.799 297.368,472.118 298.989,471.623C299.702,471.406 300.492,471.42 301.182,471.156C302.536,470.639 303.785,470.654 305.172,471.171C306.597,471.701 308.143,471.909 309.641,472.237C311.357,472.614 312.653,473.436 313.163,475.251C313.27,475.631 313.711,475.913 313.981,476.253C314.989,477.524 316.091,478.872 315.691,480.568C315.415,481.743 315.107,482.864 315.376,483.961C314.587,484.549 313.948,485.038 313.292,485.503C313.15,485.603 312.944,485.663 312.77,485.658C311.348,485.609 309.925,485.551 308.503,485.469C308.265,485.456 307.898,485.383 307.821,485.224C307.205,483.963 305.75,483.226 305.638,481.648C305.562,480.591 304.78,479.949 303.88,479.889C301.816,479.751 299.601,478.847 297.778,480.681C296.681,480.644 296.027,481.751 294.895,481.778C294.577,481.785 294.204,482.586 293.985,483.08C293.37,484.469 292.819,485.887 292.251,487.297C292.156,487.533 291.971,487.84 292.048,488.019C292.627,489.364 291.856,490.445 291.514,491.651C291.254,492.573 291.098,493.648 291.813,494.596C292.097,494.973 292.131,495.538 292.288,496.014C292.468,496.557 292.506,497.268 292.879,497.599C293.513,498.16 293.665,498.661 293.42,499.44C293.073,500.54 293.79,501.32 294.49,501.953C295.414,502.788 296.099,503.724 296.478,504.902C296.555,505.14 296.67,505.477 296.854,505.55C298.514,506.208 298.197,507.798 298.016,508.859C297.691,510.765 298.752,512.357 298.757,514.149C298.758,514.382 299.472,514.615 299.998,514.934C299.788,517.461 301.736,519.019 303.329,520.757C303.534,520.981 303.975,521.033 304.318,521.079C305.19,521.196 306.069,521.269 306.946,521.348C307.121,521.365 307.414,521.395 307.458,521.314C308.07,520.186 309.079,520.769 309.888,520.798C311.979,520.875 313.924,520.264 315.886,519.715C316.177,519.634 316.463,519.425 316.679,519.205C317.598,518.267 317.801,515.36 317.007,514.235C316.352,513.308 315.938,512.306 316.056,511.176C316.29,508.95 314.623,507.884 313.339,506.581C313.225,506.464 312.949,506.379 312.811,506.434C311.498,506.96 310.376,506.301 309.19,505.937C308.731,505.797 308.192,505.914 307.432,505.914C307.261,505.118 307.032,504.279 306.906,503.426C306.678,501.886 306.511,500.338 306.28,498.483Z" style="fill:rgb(64,63,65);fill-rule:nonzero;"/>
        <path d="M100.547,441.094C100.051,443.28 99.603,445.254 99.128,447.349C98.481,447.792 97.225,448.197 96.944,448.96C96.59,449.922 95.936,450.315 95.276,450.759C94.27,451.435 94.024,452.285 94.533,453.402C92.17,453.208 91.446,453.701 90.87,455.72C90.527,456.921 89.33,458.318 87.88,459.188C87.85,459.869 87.784,460.572 87.796,461.274C87.816,462.432 87.699,463.405 86.301,463.795C85.879,463.912 85.607,464.626 85.301,465.09C84.29,466.621 83.278,468.155 84.327,470.095C84.411,470.25 84.462,470.526 84.381,470.651C83.516,471.987 84.434,472.843 85.078,473.894C86.287,475.865 88.114,476.995 90.053,478.032C90.217,478.12 90.471,478.227 90.599,478.161C91.595,477.652 92.836,477.97 93.731,477.409C95.112,476.544 96.476,475.557 97.585,474.375C98.743,473.142 99.788,471.711 100.517,470.192C101.288,468.586 102.166,467.31 103.763,466.401C104.743,465.844 105.428,464.76 106.224,463.893C106.926,463.128 107.599,462.336 108.545,461.261C108.663,460.521 108.821,459.321 109.056,458.136C109.248,457.16 109.953,456.538 110.602,455.809C111.722,454.55 113.702,453.982 113.887,451.934C113.898,451.818 113.979,451.64 114.069,451.608C115.758,451.005 115.812,449.008 117.117,448.044C117.577,447.703 117.639,446.864 118.062,446.426C119.118,445.333 119.824,444.052 120.566,442.747C121.03,441.93 121.978,441.36 122.783,440.784C122.997,440.632 123.727,440.756 123.814,440.943C124.547,442.518 126.572,442.172 127.478,443.493C127.812,443.98 128.414,444.281 128.886,444.676C129.255,444.986 129.569,445.384 129.979,445.613C131.339,446.371 131.38,447.594 130.035,448.469C129.929,448.538 129.751,448.563 129.709,448.656C129.024,450.171 127.376,450.766 126.469,452.043C125.725,453.093 125.035,454.143 123.721,454.422C123.605,456.409 122.623,457.608 120.841,458.101C120.26,459.341 119.799,460.605 119.089,461.708C118.775,462.194 117.955,462.355 117.204,462.747C117.573,464.451 115.99,464.961 114.898,465.832C114.511,466.141 114.102,466.423 113.717,466.736C112.714,467.55 113.242,469.061 112.023,469.977C111.125,470.651 110.883,472.197 110.241,473.587C107.687,474.043 106.162,475.693 106.351,478.59C104.494,479.577 102.915,480.68 102.14,482.746C101.99,482.535 101.779,482.238 101.489,481.831C101.124,482.001 100.736,482.181 100.261,482.403C100.213,482.957 100.166,483.519 100.125,483.995C99.525,484.536 98.972,485.035 98.403,485.549C94.927,485.366 94.927,485.366 94.073,484.783C93.309,485.023 92.668,485.224 91.806,485.494C91.737,485.635 91.549,486.022 91.368,486.394C90.343,486.226 89.287,486.258 89.009,485.034C88.346,485.236 87.804,485.402 87.151,485.602C86.665,483.86 85.074,483.388 83.706,482.694C82.559,482.112 81.205,481.984 80.385,480.732C80.148,480.369 79.258,480.432 78.739,480.316C78.186,479.736 77.594,479.198 77.107,478.578C76.66,478.009 75.706,477.821 75.787,476.835C75.801,476.675 75.658,476.393 75.525,476.346C73.863,475.762 74.155,474.239 73.825,472.986C73.604,472.146 73.259,471.31 72.814,470.566C72.15,469.458 72.274,467.875 73.24,466.94C73.465,466.723 73.846,466.528 73.884,466.281C74.159,464.493 75.806,463.492 76.351,461.87C76.41,461.694 76.518,461.435 76.652,461.399C78.142,460.996 78.414,459.706 78.776,458.399C80.326,458.52 80.953,457.739 81.05,456.261C81.088,455.688 81.556,455.138 81.848,454.587C82.074,454.16 82.317,453.739 82.578,453.332C82.728,453.098 82.903,452.745 83.114,452.706C84.012,452.54 84.137,451.826 84.333,451.157C84.973,448.967 85.504,448.508 87.778,447.976C88.135,447.893 88.488,447.496 88.7,447.155C88.96,446.734 88.973,446.147 89.264,445.76C90.177,444.548 90.943,442.943 92.182,442.325C94.25,441.293 94.248,439.484 94.756,437.949C95.727,437.387 96.621,436.869 97.42,436.407C97.663,434.886 97.883,433.503 98.117,432.038C99.616,432.109 100.272,431.344 100.538,430.028C100.787,428.799 101.631,427.856 102.531,427.071C102.985,426.676 103.78,426.475 104.398,426.517C105.115,426.566 105.808,426.979 106.656,427.285C106.746,427.575 106.922,427.985 106.997,428.413C107.153,429.305 107.458,429.811 108.519,430.046C109.208,430.199 109.707,431.211 110.076,431.607C110.076,432.61 110.095,433.326 110.071,434.04C110.031,435.249 108.985,435.722 108.224,436.319C107.227,437.101 106.078,437.688 104.988,438.363C104.595,438.202 103.97,437.72 103.685,437.873C102.873,438.306 103.234,439.064 103.536,439.719C103.035,441.003 101.992,441.278 100.547,441.094Z" style="fill:rgb(64,63,65);fill-rule:nonzero;"/>
        <path d="M94.05,77.668C93.942,77.635 93.835,77.602 93.727,77.57C93.618,77.839 93.495,78.105 93.423,78.384C93.415,78.412 93.716,78.52 93.873,78.591C93.932,78.283 93.991,77.976 94.05,77.668ZM119.409,100.698C119.491,101.443 119.553,102.001 119.619,102.594C120.333,102.738 120.98,102.868 121.964,103.066C121.397,103.72 120.976,104.091 120.706,104.551C120.425,105.028 120.29,105.59 120.059,106.201C120.627,106.513 121.086,106.766 121.38,106.927C120.685,108.021 120.117,109.059 119.4,109.982C119.033,110.455 118.401,110.724 117.697,111.22C117.008,110.723 116.286,110.249 115.619,109.709C114.4,108.721 113.21,107.697 112.014,106.681C111.773,106.476 111.5,106.277 111.339,106.016C110.051,103.926 108.878,101.766 107.126,99.984C106.731,99.582 106.569,98.818 106.544,98.211C106.467,96.291 106.27,96.143 104.521,97.03C104.385,96.908 104.168,96.807 104.114,96.65C103.553,95.015 102.166,94.228 100.5,94.641C99.692,94.842 98.9,95.122 98.084,95.269C96.675,95.523 95.536,96.091 94.948,97.493C94.86,97.704 94.63,97.878 94.43,98.018C91.399,100.147 91.517,103.352 91.731,106.459C91.849,108.17 92.202,108.234 94.564,108.752C95.2,109.814 95.798,110.948 96.534,111.984C96.885,112.476 97.474,112.82 98.002,113.158C98.592,113.536 99.236,113.832 99.522,113.984C100.115,115.457 100.6,116.66 101.077,117.844C103.078,118.526 104.088,119.835 104.207,121.864C104.373,124.716 104.376,124.719 102.397,126.501C102.217,126.663 101.982,126.802 101.749,126.862C100.151,127.277 99.492,126.603 99.586,124.603C98.597,124.307 97.456,124.919 96.524,124.176C96.285,123.985 95.878,123.92 95.751,123.687C95.006,122.312 94.447,120.818 93.579,119.531C92.747,118.297 91.673,117.205 90.595,116.165C89.732,115.333 88.689,114.689 87.758,113.922C87.527,113.732 87.338,113.41 87.27,113.117C87.049,112.156 86.388,111.689 85.61,111.15C84.654,110.489 83.939,109.482 83.095,108.651C82.649,108.212 82.148,107.831 81.674,107.42C81.44,107.218 81.015,107.009 81.014,106.801C81.003,105.289 79.852,105.388 78.819,105.311C78.488,104.034 78.171,102.958 76.946,102.134C76.195,101.629 75.84,100.388 74.856,99.78C74.537,99.583 74.517,98.867 74.403,98.378C74.233,97.648 74.101,96.909 73.93,96.059C73.112,96.232 72.446,96.372 71.683,96.533C71.111,95.527 70.546,94.502 69.942,93.5C69.823,93.303 69.567,93.104 69.346,93.064C67.922,92.809 67.443,90.956 65.82,90.977C65.706,90.979 65.327,89.943 65.504,89.662C66.132,88.667 65.424,88.224 64.8,88.121C63.299,87.873 62.829,87.035 62.684,85.629C62.53,84.148 63.444,83.416 64.368,82.649C64.857,82.245 65.418,81.902 65.994,81.635C66.739,81.29 67.551,80.929 68.349,81.456C69.865,82.458 72.018,82.831 72.059,85.247C72.68,85.472 73.214,85.665 73.707,85.843C74.17,86.908 74.612,87.927 75.136,89.135C76.008,89.134 76.552,89.781 76.773,90.867C76.924,91.608 77.118,92.415 77.545,93.012C78.638,94.54 80.271,95.087 82.093,94.958C83.733,94.843 83.729,94.786 84.9,95.516C86.748,95.032 88.262,94.099 89.22,92.348C89.454,91.919 89.875,91.384 90.292,91.299C91.901,90.97 92.519,89.488 93.655,88.626C94.236,88.184 94.801,87.722 95.574,87.11L95.574,85.157C93.903,84.629 92.349,84.172 90.823,83.633C90.452,83.502 90.1,83.157 89.867,82.822C89.072,81.676 88.355,80.477 87.559,79.332C87.366,79.053 87.002,78.879 86.692,78.699C85.304,77.893 83.737,77.349 83.266,75.479C83.12,74.899 82.442,74.366 81.886,73.992C80.528,73.077 80.116,70.655 81.154,69.379C81.509,68.942 81.806,68.447 82.064,67.946C82.645,66.818 82.947,66.628 84.176,67.002C86.168,67.607 88.319,67.891 89.715,69.754C89.994,70.126 90.557,70.286 91.01,70.557C90.98,71.128 90.95,71.685 90.917,72.309C91.518,72.592 92.08,72.857 92.745,73.17C92.626,73.926 92.51,74.656 92.37,75.542C93.47,75.766 94.531,75.982 95.688,76.217L95.688,78.551C97.161,79.294 98.424,79.93 99.754,80.6C99.841,81.484 99.926,82.356 100.017,83.276C100.129,83.355 100.297,83.575 100.436,83.558C102.471,83.3 103.483,84.654 104.468,86.068C104.688,86.384 104.874,86.813 105.185,86.96C106.29,87.482 106.899,88.251 107.35,89.437C107.666,90.268 108.702,90.87 109.499,91.464C110.854,92.476 111.95,93.637 112.385,95.328C112.719,96.624 113.89,96.248 114.492,96.38C115.557,97.847 116.413,99.197 117.464,100.372C117.778,100.723 118.636,100.587 119.409,100.698Z" style="fill:rgb(64,63,65);fill-rule:nonzero;"/>
        <path d="M168.587,29.285C167.96,28.413 167.629,27.583 167.018,27.205C166.439,26.847 165.546,26.803 164.83,26.9C163.087,27.136 161.367,27.535 159.526,27.89C158.924,29.276 159.228,31.156 157.564,32.047C157.522,32.069 157.52,32.164 157.497,32.223C156.911,33.706 156.325,35.188 155.721,36.712C156.57,37.793 156.987,39.012 156.564,40.427C156.152,41.806 156.547,42.811 157.933,43.372C158.067,43.427 158.122,43.679 158.39,44.148C158.029,44.281 157.605,44.437 157.157,44.603C157.796,45.607 158.289,46.272 158.662,46.999C159.008,47.672 159.605,48.534 159.423,49.094C159.016,50.341 159.553,50.845 160.467,51.331C160.548,51.374 160.554,51.558 160.628,51.773C160.436,52.087 160.214,52.45 160.017,52.774C160.862,54.111 161.681,55.407 162.742,57.086C161.919,56.996 161.488,57.053 161.173,56.889C160.658,56.621 160.271,56.551 159.73,57.174C160.995,57.819 161.785,59.149 163.476,58.442C163.476,59.269 163.416,59.913 163.491,60.539C163.595,61.408 163.951,62.222 164.899,62.4C166.214,62.647 166.62,63.783 167.276,64.653C167.806,65.356 168.176,66.18 168.394,66.559C169.307,66.963 169.942,67.098 170.384,67.466C172.339,69.091 175.489,68.925 177.482,68.057C178.354,67.677 179.243,67.326 180.075,66.871C180.416,66.685 180.68,66.291 180.881,65.935C181.128,65.499 181.204,64.96 181.476,64.546C181.948,63.825 181.787,62.868 182.536,62.185C182.77,61.971 182.189,60.863 181.951,60.066C183.005,58.531 182.998,58.534 181.424,57.056C181.205,56.85 181.075,56.544 180.922,56.273C180.618,55.734 180.314,55.194 180.033,54.643C179.636,53.865 179.079,53.111 178.917,52.283C178.682,51.081 178.64,49.87 177.577,49.016C177.416,48.887 177.326,48.55 177.352,48.326C177.514,46.923 177.084,45.709 176.088,44.631C176.776,44.055 177.355,43.571 177.925,43.094C177.46,41.958 176.455,42.056 175.518,41.931C174.403,41.783 174.075,41.463 174.356,40.42C174.628,39.407 174.194,38.724 173.822,37.904C172.676,35.376 171.132,33.07 169.877,30.616C169.442,29.764 169.156,29.245 168.587,29.285ZM149.251,41.941C149.476,41.347 149.678,40.815 149.923,40.17C147.204,38.679 147.111,35.941 146.684,33.365C146.509,32.311 146.994,31.513 147.946,30.845C147.241,29.507 147.666,28.2 148.153,26.891C149.848,26.486 151.049,25.386 152.046,24.003C152.267,23.697 152.511,23.195 152.78,23.171C154.025,23.059 154.941,22.235 156.036,21.818C157.613,21.218 159.169,20.546 160.777,20.046C162.219,19.597 163.476,18.459 165.183,18.874C165.518,18.956 165.974,18.543 166.55,18.277C167.625,18.983 168.727,19.83 169.942,20.459C170.69,20.846 171.644,21.15 172.445,21.041C173.44,20.906 173.95,21.087 174.086,22.052C174.206,22.914 173.749,23.257 172.495,23.349C172.377,23.358 172.263,23.432 171.941,23.554C172.062,23.914 172.251,24.61 172.298,24.6C173.928,24.271 174.425,26.394 175.983,26.121C176.235,27.678 176.891,28.869 178.055,29.79C178.849,30.417 179.144,31.222 179.071,32.318C178.992,33.495 179.268,34.645 179.92,35.774C180.48,36.746 181.127,37.851 180.848,39.179C180.765,39.569 181.09,40.272 181.44,40.488C183.487,41.751 183.467,43.794 183.608,45.798C183.617,45.921 183.677,46.041 183.715,46.169C185.628,47.327 186.547,49.12 186.997,51.241C187.121,51.825 187.071,52.159 186.499,52.476C185.627,52.96 186.028,53.516 186.586,53.963C187.415,54.626 188.269,55.258 189.288,56.037C188.439,57.194 187.714,58.18 186.699,59.563C187.62,59.405 188.103,59.323 188.62,59.234C190.246,61.02 189.161,63.042 189.022,65.114C187.318,65.586 187.656,67.163 187.559,68.404C187.484,69.358 187.138,69.837 186.425,70.417C185.001,71.575 183.761,72.956 181.868,73.398C181.687,73.441 181.492,73.756 181.446,73.974C181.321,74.572 180.914,74.733 180.401,74.935C178.273,75.774 176.165,76.663 174.065,77.571C172.561,78.221 171.287,78.295 169.956,76.985C169.308,76.347 168.106,76.18 167.119,76C165.425,75.691 164.297,74.686 163.361,73.354C162.81,72.571 162.232,71.806 161.714,71.001C161.478,70.634 161.276,70.207 161.201,69.782C161.012,68.718 160.991,67.63 160.009,66.863C159.771,66.677 159.724,66.158 159.714,65.788C159.695,65.12 159.753,64.474 158.828,64.365C158.727,64.353 158.649,63.995 158.595,63.789C158.523,63.515 158.574,63.164 158.419,62.966C157.05,61.216 157.024,61.123 157.944,59.024C157.328,58.779 156.724,58.521 156.108,58.298C155.225,57.978 155.215,57.699 155.932,57.071C155.391,55.958 154.604,54.94 154.426,53.825C154.173,52.245 152.969,51.237 152.503,49.818C152.25,49.046 151.719,48.367 151.344,47.63C151.202,47.351 151.009,47 151.068,46.733C151.496,44.8 150.304,43.493 149.251,41.941Z" style="fill:rgb(64,63,65);fill-rule:nonzero;"/>
        <path d="M395.036,428.202C393.978,429.691 393.066,430.984 392.137,432.266C392.03,432.413 391.836,432.589 391.678,432.593C389.969,432.636 389.51,434.458 388.177,435.044C387.948,435.145 387.846,435.562 387.715,435.846C387.582,436.133 387.564,436.614 387.36,436.704C385.738,437.421 385.275,439.193 384.042,440.247C382.824,441.287 382.697,442.523 383.05,444.045C383.533,446.128 384.515,447.919 385.838,449.672C387.606,449.966 387.996,450.584 387.929,453.363C388.884,452.953 389.777,452.57 390.874,452.099C391.172,452.216 391.688,452.418 392.339,452.674C392.685,451.094 394.166,451.678 395.093,451.135C395.819,450.71 396.419,450.311 396.995,449.663C397.671,448.901 398.663,448.358 399.61,447.918C400.414,447.544 401.114,447.24 401,446.219C402.981,446.182 403.972,444.559 405.592,443.829C406.678,444.203 407.92,444.631 409.372,445.132C409.372,446.207 409.635,447.489 409.305,448.594C408.889,449.99 407.665,450.913 406.372,451.634C405.95,451.869 405.269,452.133 405.221,452.46C405.024,453.785 403.779,454.317 403.228,455.36C403.026,455.743 402.465,456.121 402.032,456.166C399.762,456.4 399.761,458.263 399.314,459.806C399.248,460.035 399.37,460.313 399.367,460.569C399.362,460.976 400.032,463.657 400.211,463.941C401.006,465.205 401.722,466.527 402.612,467.719C403.075,468.34 403.828,468.753 404.476,469.222C404.669,469.362 405.112,469.31 405.172,469.455C405.73,470.822 406.914,470.117 407.816,470.273C408.556,470.402 409.321,470.38 410.075,470.423C410.327,470.438 410.618,470.536 410.825,470.446C412.77,469.598 414.906,469.132 416.478,467.537C417.368,466.634 418.198,465.47 419.298,465.036C420.216,464.673 420.085,464.021 420.459,463.467C421.641,463.295 422.689,463.023 423.473,461.825C423.817,461.299 425.118,461.3 425.996,461.251C426.785,461.207 426.958,461.946 427.156,462.574C427.289,462.998 427.391,463.583 427.703,463.773C428.686,464.371 428.456,465.303 428.553,465.742C427.826,466.933 427.287,467.816 426.666,468.833C425.743,468.621 425.029,469.147 424.443,469.951C424.224,470.252 423.945,470.725 423.679,470.735C422.909,470.765 422.691,471.18 422.579,471.81C422.392,472.864 421.66,473.057 420.614,472.92C420.594,475.035 418.635,475.641 417.448,476.868C416.854,477.481 415.899,477.697 415.712,478.759C415.653,479.095 415.125,479.399 414.753,479.618C414.235,479.924 413.467,479.936 413.554,480.837C413.563,480.93 413.421,481.127 413.39,481.119C411.343,480.593 411.368,482.919 410.103,483.569C409.332,483.965 408.697,484.316 407.827,484.228C406.939,482.582 404.826,481.743 404.827,479.47C403.952,479.524 403.558,479.178 403.193,478.427C402.389,476.777 401.267,475.415 399.646,474.321C398.545,473.579 397.228,472.67 396.801,471.161C396.583,470.389 396.392,469.609 396.142,468.657C395.437,468.427 394.666,468.186 394.047,467.285C393.33,466.242 392.137,465.351 390.908,465.352C390.151,464.467 389.503,463.714 388.861,462.956C388.665,462.725 388.392,462.506 388.317,462.237C388.085,461.4 387.87,460.613 386.77,460.59C386.629,460.587 386.46,460.379 386.358,460.23C385.394,458.81 384.456,457.373 383.475,455.966C383.267,455.669 382.931,455.449 382.626,455.236C382.421,455.094 382.067,455.091 381.947,454.913C380.765,453.166 378.88,452.164 377.493,450.642C377.247,450.372 377.201,449.916 376.951,449.653C376.619,449.306 376.077,448.75 375.801,448.838C374.924,449.116 374.561,448.41 374.173,448.053C373.272,447.224 372.283,446.494 371.411,445.679C370.706,445.021 370.46,443.738 370.281,442.685C370.083,441.528 370.59,440.566 371.781,440.079C371.991,439.994 372.256,439.728 372.271,439.529C372.43,437.385 374.439,436.79 375.581,435.471C376.115,434.856 377.036,435.107 377.548,434.223C377.894,433.624 378.688,433.233 378.933,432.386C379.036,432.029 379.571,431.548 379.907,431.549C381.856,431.556 382.573,429.972 383.659,428.844C384.16,428.325 384.509,427.739 385.303,427.383C385.982,427.078 386.258,425.876 386.854,424.818C387.355,424.484 388.14,423.961 389.143,423.291C390.399,424.026 391.785,424.829 393.161,425.65C393.307,425.738 393.5,425.942 393.486,426.073C393.382,427.097 394.071,427.661 395.036,428.202Z" style="fill:rgb(64,63,65);fill-rule:nonzero;"/>
        <path d="M342.965,17.598C343.855,17.686 344.475,17.295 345.062,16.465C345.613,15.686 346.608,15.22 347.074,14.869C349.054,15.492 350.607,15.971 352.151,16.475C352.512,16.593 353.014,16.706 353.163,16.979C354.093,18.686 355.913,18.675 357.413,19.121C358.467,19.434 359.543,19.514 360.377,20.35C360.579,20.553 360.964,20.584 361.272,20.669C362.454,20.998 363.368,21.639 364.247,22.542C365.03,23.348 366.183,23.845 367.246,24.313C368.553,24.888 368.939,25.28 368.776,26.501C368.701,27.067 368.52,27.62 368.369,28.252C367.863,28.219 367.347,28.185 366.611,28.137C366.921,29.118 367.172,29.912 367.432,30.734C366.451,31.374 365.343,31.738 364.637,31.08C363.249,29.788 361.213,30.006 359.858,28.713C359.446,28.32 358.678,28.309 358.081,28.104C357.127,27.775 356.183,27.421 355.229,27.094C353.63,26.547 352.003,26.186 350.52,27.322C349.71,27.942 349.101,27.553 348.415,27.041C347.744,27.697 347.019,28.211 346.566,28.903C346.09,29.631 345.875,30.529 345.493,31.486C344.86,31.175 344.322,30.912 343.463,30.491C343.895,31.732 344.231,32.698 344.618,33.808C343.774,34.331 342.975,34.826 342.177,35.32C341.671,36.904 342.269,37.977 343.669,38.747C344.161,39.018 344.625,39.393 344.999,39.812C346.133,41.085 347.515,41.832 349.152,42.343C352.673,43.444 356.026,44.929 358.83,47.648C357.569,48.924 357.704,50.667 357.528,52.206C355.287,53.216 353.329,52.567 351.373,51.807C349.828,51.208 348.273,50.635 346.719,50.06C346.281,49.898 343.704,49.71 343.162,49.73C342.966,49.737 342.741,49.636 342.57,49.523C341.852,49.053 341.16,48.56 340.422,49.507C340.328,49.628 340.019,49.731 339.913,49.669C338.569,48.877 337.989,49.875 337.248,50.693C336.792,51.197 336.14,51.522 335.461,52.01C335.317,52.935 335.156,54.004 334.98,55.071C334.95,55.253 334.908,55.488 334.783,55.59C333.19,56.893 333.911,58.233 334.679,59.592C334.828,59.855 334.952,60.157 334.991,60.454C335.388,63.504 337.556,65.254 339.835,66.826C340.737,67.448 341.953,67.605 343.015,68.003C343.909,68.338 344.79,68.712 345.673,69.076C346.027,69.223 346.385,69.549 346.721,69.523C348.077,69.416 348.724,70.154 349.409,71.212C350.404,72.752 350.515,72.68 349.38,74.259C349.564,74.509 349.795,74.741 349.93,75.019C350.461,76.113 350.009,77.016 348.831,77.015C348.055,77.014 347.314,76.849 346.657,77.429C346.546,77.528 346.262,77.547 346.118,77.477C344.693,76.789 343.077,76.972 341.597,76.379C339.73,75.63 337.858,74.834 335.837,74.467C335.139,74.34 334.565,73.638 333.872,73.35C332.757,72.887 331.613,72.347 330.438,72.208C328.954,72.033 327.91,71.322 326.805,70.424C325.581,69.43 324.146,68.695 322.621,67.732C323.332,66.148 322.878,64.42 323.831,62.806C324.606,61.496 324.793,59.84 325.255,58.341C325.342,58.057 325.423,57.718 325.625,57.532C326.612,56.623 327.744,55.498 327.836,54.889C327.975,53.98 328.469,53.466 329.16,52.923C330.259,52.058 331.275,51.132 330.883,49.39C330.658,48.39 331.256,48.015 332.751,47.689C332.884,46.745 333.022,45.842 333.133,44.937C333.163,44.688 333.166,44.414 333.096,44.177C332.283,41.426 333.366,39.374 335.452,37.674C335.646,37.516 335.931,37.276 335.919,37.09C335.83,35.59 336.983,34.557 337.312,33.235C337.588,32.125 338.063,31.209 339.043,30.597C339.903,30.06 340.258,29.317 340.008,28.318C339.557,26.517 339.556,26.518 341.193,25.41C341.093,24.844 340.888,24.293 341.177,23.561C341.923,21.679 342.366,19.676 342.965,17.598Z" style="fill:rgb(64,63,65);fill-rule:nonzero;"/>
        <path d="M269.245,1.591C269.696,2.974 270.059,4.089 270.476,5.367C270.155,6.894 268.672,7.688 267.52,8.748C267.318,8.934 266.944,9.022 266.655,9.011C265.653,8.972 264.682,8.784 263.729,9.428C263.427,9.633 262.761,9.288 262.259,9.208C258.974,8.681 256.601,10.945 256.846,14.293C256.883,14.793 256.682,15.492 256.329,15.797C255.705,16.338 255.513,16.83 255.692,17.629C255.807,18.146 255.698,18.731 255.609,19.272C255.453,20.22 254.591,19.405 254.192,19.798C254.014,19.974 253.811,20.125 253.505,20.384C254.722,21.581 254.625,22.727 253.407,23.631C254.043,24.674 254.66,25.61 255.185,26.595C255.341,26.887 255.366,27.37 255.236,27.673C254.631,29.083 254.945,30.25 256.181,31.236C255.668,31.625 255.278,31.921 254.991,32.139C255.316,33.876 255.719,35.464 255.873,37.075C255.954,37.929 255.644,38.834 255.44,39.698C255.075,41.241 255.092,42.578 256.044,44.067C256.786,45.228 256.68,46.855 255.589,48.124C256.001,48.802 256.474,49.41 256.76,50.095C257.118,50.956 257.493,51.817 256.452,52.657C256.104,52.937 256.181,53.892 256.256,54.514C256.355,55.318 256.65,56.098 256.872,56.935C256.622,57.137 256.42,57.271 256.256,57.44C255.793,57.912 255.413,58.668 254.871,58.806C254.29,58.953 253.57,58.472 252.895,58.375C252.63,58.337 252.327,58.612 252.032,58.718C251.035,59.079 250.051,59.296 249.15,58.311C249.313,57.573 249.459,56.785 248.826,56.074C248.65,55.876 248.708,55.457 248.683,55.137C248.474,52.535 248.583,49.949 249.202,47.407C249.318,46.934 249.643,46.511 249.849,46.11C248.763,44.188 247.969,42.361 248.456,40.095C248.956,37.769 249.143,35.372 249.376,32.997C249.449,32.256 249.125,31.48 249.164,30.729C249.206,29.936 249.464,29.154 249.678,28.128C247.651,26.958 248.695,24.751 248.839,22.939C249.013,20.754 249.188,18.672 248.432,16.557C248.164,15.805 248.267,14.909 248.251,14.078C248.23,13.024 248.164,12.038 247.067,11.448C246.41,11.094 246.492,9.543 245.123,10.232C245.09,10.249 244.693,9.546 244.416,9.097C241.697,10.138 238.991,9.931 236.319,8.846C235.175,8.382 235.03,8.094 235.074,6.84C235.1,6.084 235.008,5.317 234.894,4.566C234.705,3.324 235.019,2.812 236.229,2.559C236.472,2.508 236.888,2.542 236.936,2.421C237.594,0.777 239.282,1.488 240.399,0.906C240.77,0.713 241.441,0.794 241.837,1.006C243.088,1.677 244.323,1.388 245.582,1.159C246.059,1.072 246.573,0.896 247.022,0.991C248.482,1.301 249.913,1.286 251.383,1.036C251.949,0.94 252.581,1.298 253.174,1.266C253.974,1.222 254.824,1.137 255.545,0.823C256.409,0.446 257.079,0.334 258.049,0.679C259.17,1.077 260.463,1.121 261.691,0.601C262.151,0.407 262.775,0.435 263.282,0.549C264.392,0.797 265.465,1.186 266.616,0.718C267.893,0.199 268.548,1.445 269.245,1.591Z" style="fill:rgb(64,63,65);fill-rule:nonzero;"/>
        <path d="M415.593,121.112C415.065,123.717 412.449,124.625 410.905,126.582C409.904,125.794 409.152,124.568 407.663,124.87C406.844,123.979 405.989,123.118 405.216,122.188C404.178,120.94 403.016,119.916 401.686,118.936C400.472,118.041 398.924,117.249 398.268,115.472C397.853,114.349 396.566,113.467 395.518,112.678C394.057,111.578 393.678,110.45 394.772,108.966C395.668,107.749 396.767,106.681 397.761,105.535C397.96,105.305 398.048,104.973 398.262,104.766C398.706,104.338 399.201,103.629 399.673,103.63C400.927,103.632 401.571,102.711 402.466,102.179C402.66,102.063 402.918,101.829 402.92,101.648C402.934,100.088 403.927,100.101 405.095,100.315C405.408,99.508 405.282,98.465 406.359,98.089C406.552,98.022 406.653,97.567 406.718,97.273C407.048,95.789 407.942,94.773 409.274,94.103C410.947,93.261 412.167,92.077 412.213,89.965C412.81,90.005 413.301,90.038 413.869,90.077C414.079,89.077 414.297,88.042 414.52,86.978C415.744,86.705 416.781,86.33 417.288,84.961C417.496,84.4 418.47,84.135 419.076,83.707C419.631,83.315 420.486,82.979 420.637,82.454C420.994,81.211 422.182,80.597 422.579,79.427C422.876,78.552 423.576,78.21 424.468,78.414C424.908,77.38 425.321,76.408 425.742,75.42L427.318,75.42C427.512,74.611 427.837,73.764 427.887,72.902C427.938,72.012 428.363,71.506 429.019,71.033C430.656,69.854 430.647,69.841 431.938,70.037C432.137,69.745 432.307,69.389 432.571,69.129C433.24,68.469 433.907,68.495 434.23,69.345C434.55,70.189 435.085,70.665 435.769,71.164C436.192,71.473 436.436,72.088 436.648,72.611C436.882,73.19 436.989,73.822 437.175,74.52C435.223,75.045 434.571,76.733 434.012,78.4C433.766,79.132 433.425,79.616 432.817,80.031C431.935,80.632 430.921,81.165 430.295,81.981C429.51,83.005 428.711,83.368 427.515,83.009C427.352,82.96 427.151,83.037 426.697,83.083C427.007,83.892 427.281,84.605 427.585,85.397C427.032,85.812 425.676,85.526 426.227,86.844C425.324,87.527 424.471,88.297 423.497,88.858C422.933,89.184 422.556,89.443 422.575,90.129C422.6,91.006 422.07,91.379 421.266,91.483C420.397,91.595 419.635,92.367 418.605,91.68C418.219,92.528 417.907,93.216 417.528,94.049C416.677,94.1 415.722,94.157 414.658,94.221C414.226,95.837 413.779,97.507 413.225,99.575C412.794,99.783 412.009,100.163 410.931,100.684C410.901,100.761 410.825,101.54 410.535,101.63C408.337,102.31 408.932,104.725 407.731,106.022C407.397,106.383 407.566,107.21 407.49,107.956C407.218,107.802 406.991,107.716 406.816,107.567C406.057,106.922 405.418,107.532 404.92,107.89C404.316,108.323 404.872,108.825 405.093,109.364C406.005,111.591 407.523,113.447 409.327,114.82C410.677,115.848 411.183,117.326 412.294,118.389C413.245,119.299 414.325,120.076 415.593,121.112Z" style="fill:rgb(64,63,65);fill-rule:nonzero;"/>
        <path d="M347.031,121.306L337.347,121.306C379.555,152.832 407.869,207.227 409.152,269.241L308.737,269.241L308.737,121.645L283.027,121.645L283.027,422.461L308.737,422.461L308.737,273.991L409.209,273.991C409.106,335.336 382.538,389.616 342.048,422.311C344.613,422.311 347.855,422.31 351.316,422.31C390.055,388.151 415.111,334.386 415.209,273.991L450.374,273.991L450.374,269.241L415.155,269.241C413.928,208.305 387.309,154.479 347.031,121.306ZM196.926,269.241L96.451,269.241C97.734,207.223 126.055,152.83 168.267,121.305L158.565,121.305C118.29,154.48 91.674,208.308 90.448,269.241L55.325,269.241L55.325,273.991L90.394,273.991C90.492,334.384 115.544,388.15 154.28,422.311L163.558,422.311C123.067,389.616 96.496,335.337 96.394,273.991L196.926,273.991L196.926,422.461L222.636,422.461L222.636,121.645L196.926,121.645L196.926,269.241Z" style="fill:rgb(64,63,65);fill-rule:nonzero;"/>
    </g>
</svg>
